<?xml version="1.0" standalone="no"?>
<!DOCTYPE svg PUBLIC "-//W3C//DTD SVG 20010904//EN"
 "http://www.w3.org/TR/2001/REC-SVG-20010904/DTD/svg10.dtd">
<svg version="1.0" xmlns="http://www.w3.org/2000/svg"
 width="80.000000pt" height="80.000000pt" viewBox="0 0 80.000000 80.000000"
 preserveAspectRatio="xMidYMid meet">

<g transform="translate(0.000000,80.000000) scale(0.100000,-0.100000)"
fill="#000000" stroke="none">
<path d="M160 526 c0 -83 4 -127 12 -132 6 -4 35 18 70 54 l59 61 -3 68 -3 68
-67 3 -68 3 0 -125z"/>
<path d="M318 477 l-157 -172 -1 -83 c0 -75 2 -83 18 -80 20 3 462 480 462
497 0 7 -30 11 -82 10 l-83 -1 -157 -171z"/>
<path d="M396 308 c-20 -23 -36 -45 -36 -48 0 -4 25 -35 56 -69 l56 -62 72 3
c60 3 71 6 71 20 0 18 -159 198 -175 198 -5 0 -25 -19 -44 -42z"/>
</g>
</svg>
